<?xml version="1.0" standalone="no"?>
<!DOCTYPE svg PUBLIC "-//W3C//DTD SVG 20010904//EN"
 "http://www.w3.org/TR/2001/REC-SVG-20010904/DTD/svg10.dtd">
<svg version="1.0" xmlns="http://www.w3.org/2000/svg"
 width="1280.000000pt" height="720.000000pt" viewBox="0 0 1280.000000 720.000000"
 preserveAspectRatio="xMidYMid meet">

<g transform="translate(0.000000,720.000000) scale(0.100000,-0.100000)"
fill="#000000" stroke="none">
<path d="M5679 6440 c-528 -37 -998 -190 -1354 -442 -175 -123 -370 -333 -478
-514 -253 -422 -373 -1010 -338 -1657 61 -1134 474 -2176 1053 -2663 143 -120
334 -238 367 -226 8 2 11 0 8 -6 -4 -5 17 -20 46 -32 486 -210 1130 -197 1840
36 779 256 1523 742 1970 1288 464 567 598 1149 412 1791 -110 377 -338 786
-644 1150 -575 686 -1311 1119 -2106 1239 -243 37 -553 51 -776 36z m676
-1069 c12 12 161 12 183 0 17 -9 199 -49 251 -55 15 -2 48 -23 77 -49 l49 -46
-21 -19 c-11 -11 -38 -25 -60 -33 -26 -9 -33 -14 -21 -17 10 -2 32 1 49 7 34
12 52 6 28 -9 -12 -8 -10 -10 7 -10 12 0 25 5 28 10 9 14 41 4 85 -25 19 -13
52 -27 74 -31 37 -6 38 -8 33 -40 -5 -31 10 -51 36 -46 6 2 12 -93 8 -127 -2
-7 2 -10 8 -6 10 6 12 0 15 -44 2 -24 24 -23 28 1 4 32 34 35 42 4 4 -16 11
-23 20 -20 8 3 17 -3 20 -14 4 -11 17 -23 29 -26 21 -6 21 -7 4 -20 -12 -9
-14 -16 -8 -21 13 -8 15 -45 2 -45 -5 0 -12 7 -15 16 -4 9 -9 14 -13 11 -3 -4
0 -13 7 -22 7 -9 10 -19 6 -22 -4 -4 -10 -2 -14 5 -5 6 -18 13 -31 15 -13 2
-36 19 -52 37 -16 18 -32 30 -36 26 -4 -4 -3 -10 2 -14 6 -4 21 -27 34 -52 26
-50 48 -77 37 -47 -13 39 7 36 34 -5 16 -24 40 -54 54 -67 14 -13 26 -29 26
-37 0 -7 7 -17 15 -22 11 -5 21 -39 30 -96 13 -77 13 -92 0 -117 -14 -26 -14
-28 1 -22 15 6 16 -1 9 -63 -4 -38 -8 -120 -10 -182 -2 -118 7 -138 32 -67 25
73 40 81 154 84 113 2 136 -6 166 -62 12 -22 17 -56 18 -113 0 -77 -2 -85 -49
-180 -54 -109 -121 -185 -230 -259 -52 -36 -65 -40 -120 -40 -33 0 -70 3 -81
7 -18 7 -22 0 -39 -55 -11 -34 -23 -69 -27 -77 -9 -18 -34 -136 -54 -247 -16
-94 -25 -113 -68 -154 -33 -31 -264 -187 -319 -215 -16 -8 -67 -42 -111 -75
-45 -32 -97 -69 -115 -81 -18 -13 -46 -35 -62 -50 -44 -41 -94 -62 -220 -93
-63 -15 -123 -31 -132 -36 -49 -25 -118 -225 -118 -338 1 -62 14 -134 32 -169
8 -15 8 -26 2 -32 -13 -13 -303 -25 -364 -16 l-45 7 -1 87 c0 58 -8 116 -23
172 -32 115 -32 196 -1 290 24 72 25 85 23 295 -1 122 -6 232 -11 246 -6 14
-39 66 -75 117 -130 184 -201 355 -251 612 -62 314 -68 426 -36 640 12 74 25
187 30 250 5 78 15 133 30 170 12 30 28 73 36 95 14 39 29 74 44 105 4 8 38
36 76 61 47 31 99 81 159 150 108 126 102 120 199 193 94 70 186 114 275 130
57 11 77 10 141 -5 47 -11 79 -14 85 -8z m1411 -3062 c22 -24 10 -38 -14 -16
-10 9 -34 23 -55 32 -34 14 -36 14 -30 -2 3 -10 20 -30 37 -45 l31 -28 -31 10
c-21 8 -34 21 -43 45 -7 19 -10 39 -6 44 8 13 89 -16 111 -40z m7 -66 c-7 -2
-19 -2 -25 0 -7 3 -2 5 12 5 14 0 19 -2 13 -5z m-2233 -426 c0 -17 42 -37 77
-37 19 0 24 -3 17 -10 -16 -16 -118 20 -122 43 -2 10 3 17 12 17 9 0 16 -6 16
-13z m540 -84 c0 -8 -5 -11 -11 -7 -6 3 -15 0 -20 -7 -4 -7 -12 -10 -16 -5 -4
5 -2 11 5 13 6 3 12 11 12 19 0 8 6 11 15 8 8 -4 15 -13 15 -21z m-53 -79 c-3
-3 -12 -4 -19 -1 -8 3 -5 6 6 6 11 1 17 -2 13 -5z m-10 -30 c-3 -3 -12 -4 -19
-1 -8 3 -5 6 6 6 11 1 17 -2 13 -5z m-10 -30 c-3 -3 -12 -4 -19 -1 -8 3 -5 6
6 6 11 1 17 -2 13 -5z m-27 -88 c0 -11 -19 -15 -25 -6 -3 5 1 10 9 10 9 0 16
-2 16 -4z m-15 -36 c3 -5 1 -10 -4 -10 -6 0 -11 5 -11 10 0 6 2 10 4 10 3 0 8
-4 11 -10z m-10 -30 c3 -5 1 -10 -4 -10 -6 0 -11 5 -11 10 0 6 2 10 4 10 3 0
8 -4 11 -10z m-10 -30 c3 -5 1 -10 -4 -10 -6 0 -11 5 -11 10 0 6 2 10 4 10 3
0 8 -4 11 -10z m-969 -14 c10 -8 17 -17 14 -20 -10 -10 -50 6 -50 20 0 18 11
18 36 0z m-41 -246 c3 -5 1 -10 -4 -10 -6 0 -11 5 -11 10 0 6 2 10 4 10 3 0 8
-4 11 -10z"/>
<path d="M7140 4796 c0 -2 8 -10 18 -17 15 -13 16 -12 3 4 -13 16 -21 21 -21
13z"/>
<path d="M5564 4661 c-57 -10 -164 -87 -164 -119 0 -19 50 -7 68 16 14 19 71
18 172 -3 82 -17 220 -30 220 -21 0 4 -7 14 -15 22 -22 22 -19 37 5 24 11 -6
20 -8 20 -6 0 8 -49 55 -73 70 -26 16 -174 27 -233 17z"/>
<path d="M5852 4628 c5 -15 28 -23 28 -10 0 5 -7 13 -16 16 -10 4 -14 1 -12
-6z"/>
<path d="M6511 4623 c-36 -7 -74 -21 -84 -31 -14 -12 -21 -13 -24 -5 -6 18
-33 3 -44 -24 -11 -30 -24 -23 -33 17 -7 35 -26 31 -26 -5 0 -13 -5 -27 -11
-30 -7 -5 -3 -14 10 -26 22 -20 51 -25 51 -9 0 6 5 10 11 10 5 0 8 -4 4 -9 -9
-15 15 -24 30 -11 9 7 23 9 37 4 13 -4 28 -6 33 -4 21 7 114 21 200 31 49 5
104 13 122 18 20 6 46 6 67 0 20 -6 43 -6 57 0 24 9 24 9 -6 15 -73 16 -112
29 -142 47 -25 16 -42 19 -81 13 -32 -4 -52 -2 -56 5 -9 14 -32 12 -115 -6z"/>
<path d="M5754 4415 c11 -8 25 -15 30 -15 6 0 22 -9 36 -20 l25 -20 -35 12
c-19 6 -65 13 -102 15 -82 5 -147 -14 -201 -58 -34 -28 -74 -86 -65 -94 2 -2
24 -7 48 -10 41 -6 43 -5 22 7 -24 15 -21 31 4 21 9 -3 14 2 14 17 0 28 52 80
80 80 17 0 20 -4 15 -20 -7 -23 17 -73 45 -93 16 -11 30 -12 65 -4 35 8 47 17
60 43 8 17 15 39 15 48 0 23 6 20 50 -25 32 -33 41 -38 46 -25 4 11 -3 24 -20
37 -31 25 -33 39 -5 39 35 0 18 33 -31 57 -25 12 -61 22 -80 22 -33 0 -34 -1
-16 -14z m-51 -100 c-5 -13 -23 -22 -23 -11 0 15 14 35 21 31 4 -3 6 -12 2
-20z"/>
<path d="M6343 4378 c-21 -27 -23 -51 -7 -69 16 -18 18 -18 44 1 16 11 41 20
57 20 17 0 42 13 63 31 l35 31 -30 -7 c-16 -3 -48 -15 -70 -25 -39 -19 -60
-15 -60 12 0 17 -21 20 -32 6z"/>
<path d="M6590 4349 c-74 -16 -190 -77 -190 -100 0 -14 38 -11 43 4 4 7 6 6 6
-4 1 -9 7 -19 15 -22 11 -4 14 1 13 20 -2 21 6 31 38 50 22 12 55 23 73 23 31
0 32 -2 31 -32 -4 -59 31 -98 88 -98 32 0 73 25 73 44 0 6 5 17 12 24 9 9 16
8 30 -5 10 -9 18 -21 18 -27 0 -7 13 -20 30 -29 23 -14 34 -15 49 -7 29 15 17
35 -53 84 -83 59 -202 92 -276 75z m90 -52 c0 -7 -6 -21 -13 -31 -13 -18 -14
-18 -21 -1 -6 18 9 45 25 45 5 0 9 -6 9 -13z"/>
<path d="M6860 4347 c0 -2 15 -16 33 -33 l32 -29 -29 33 c-28 30 -36 37 -36
29z"/>
<path d="M5838 4253 c7 -3 16 -2 19 1 4 3 -2 6 -13 5 -11 0 -14 -3 -6 -6z"/>
<path d="M7665 3964 c-13 -5 -7 -205 6 -219 16 -16 38 33 53 118 9 52 -27 112
-59 101z"/>
<path d="M7467 3808 c-10 -8 -18 -29 -20 -53 -2 -34 1 -40 18 -43 27 -4 52 57
35 88 -13 24 -12 23 -33 8z"/>
<path d="M5850 3785 c0 -8 4 -15 9 -15 5 0 18 -3 28 -7 17 -6 17 -5 -1 15 -22
26 -36 28 -36 7z"/>
<path d="M6145 3790 c-16 -4 -45 -14 -62 -24 -38 -19 -45 -42 -10 -31 12 4 48
8 79 9 62 1 71 6 63 29 -8 19 -32 25 -70 17z"/>
<path d="M5737 3391 c-101 -10 -64 -26 61 -26 64 -1 158 -6 207 -13 50 -6 113
-12 141 -12 28 0 87 -9 130 -20 96 -24 176 -27 168 -6 -6 16 -48 33 -84 34
-21 1 -104 12 -120 17 -3 1 -41 5 -85 9 -44 5 -84 11 -88 13 -12 7 -265 10
-330 4z"/>
<path d="M6850 2950 c-25 -21 -49 -39 -53 -40 -13 0 -67 -53 -67 -65 0 -16
-37 -35 -55 -29 -8 4 -17 -1 -21 -10 -3 -9 -12 -16 -19 -16 -6 0 -20 -9 -30
-20 -10 -11 -29 -20 -41 -20 -13 0 -47 -11 -76 -24 -29 -13 -87 -29 -127 -35
-41 -7 -80 -16 -85 -20 -14 -11 -287 -5 -346 8 -25 5 -47 7 -49 5 -13 -12 221
-89 284 -93 11 0 60 -3 108 -4 49 -2 92 -8 95 -13 12 -17 98 -16 112 1 7 8 17
15 22 15 5 0 15 6 22 13 8 6 24 19 37 27 49 31 120 107 114 122 -4 9 1 18 10
22 9 3 13 10 10 16 -3 5 3 10 14 10 13 0 26 12 36 30 10 19 31 36 55 46 22 9
40 19 40 23 0 4 16 22 35 41 34 34 42 50 28 50 -5 0 -28 -18 -53 -40z"/>
<path d="M6300 2560 c0 -5 4 -10 9 -10 6 0 13 5 16 10 3 6 -1 10 -9 10 -9 0
-16 -4 -16 -10z"/>
</g>
</svg>
